<svg xmlns="http://www.w3.org/2000/svg" width="454" height="242" viewBox="0 0 454 242" fill="none"><mask id="mask0_2412_11723" style="mask-type:alpha" maskUnits="userSpaceOnUse" x="0" y="0" width="454" height="242"><rect width="454" height="242" fill="#D9D9D9"></rect></mask><g mask="url(#mask0_2412_11723)"><g opacity="0.1"><path d="M8.53581 290C4.03581 258.986 3.13582 227.971 8.63582 197.061C13.8358 167.509 24.7358 140.776 45.5358 119.369C60.1358 104.331 77.9358 94.6198 97.2358 88.772C134.836 77.3896 168.336 57.8621 200.636 35.515C219.136 22.6707 238.836 12.1237 261.136 7.94666C287.036 3.03864 312.436 5.64929 337.036 14.4211C392.936 34.2619 445.836 60.6815 493.436 97.6482C502.836 104.958 510.936 113.73 518.636 122.919C518.636 121.144 518.636 119.473 518.636 117.698C511.836 111.119 505.336 104.123 498.236 97.9615C473.136 75.9277 444.236 60.4727 415.136 45.4354C391.236 33.1132 367.236 21.1043 341.736 12.7502C317.636 4.9183 293.236 0.53244 267.936 3.87405C245.136 6.9024 224.936 16.9272 205.536 29.0406C191.836 37.7079 178.436 46.793 164.936 55.6691C145.836 68.2002 124.936 76.1365 103.736 83.3419C85.5358 89.503 68.0358 96.4995 52.9358 108.822C29.2358 128.245 15.8358 154.351 8.63582 184.321C0.435815 217.842 0.535815 251.78 5.13581 285.823C5.33581 287.181 5.43581 288.538 5.53581 290C6.53581 290 7.53581 290 8.53581 290Z" fill="white" stroke="white" stroke-width="4"></path><path d="M49.5359 290C49.6359 267.549 49.6359 245.097 49.9359 222.75C50.1359 209.383 50.2359 196.017 52.7359 182.755C57.0359 159.468 69.9359 142.551 88.3359 129.498C103.436 118.847 119.836 110.806 136.336 102.974C164.336 89.6074 191.736 74.9879 220.236 62.8745C243.236 53.0585 266.636 44.7045 291.536 41.7806C312.236 39.3788 332.336 42.0938 351.736 50.4479C380.836 62.9789 409.836 75.51 439.036 87.7278C472.336 101.721 493.136 127.618 505.536 161.87C509.836 173.774 513.336 185.888 516.636 198.106C517.136 199.881 517.036 201.969 518.536 203.327C518.536 199.463 518.536 195.704 518.536 191.84C515.736 187.454 515.236 182.233 513.736 177.325C509.436 163.75 504.636 150.488 498.036 137.956C485.536 113.939 467.136 96.9172 442.936 86.4747C413.536 73.8392 384.036 61.517 354.836 48.5682C325.436 35.4106 295.636 35.9327 265.336 44.0779C238.436 51.2833 213.036 62.4568 188.036 74.6746C159.136 88.772 129.936 102.452 101.536 117.802C91.9359 123.024 82.9359 129.394 74.8359 136.912C58.7359 151.845 50.3359 170.746 48.5359 192.989C46.0359 225.256 46.5359 257.628 46.5359 290C47.5359 290 48.5359 290 49.5359 290Z" fill="white"></path><path d="M66.5361 290C67.9361 267.757 67.2361 245.515 67.7361 223.272C67.8361 217.529 68.2361 211.785 69.0361 206.146C70.7361 193.198 78.2361 183.695 87.1361 175.236C139.136 126.052 199.136 92.7402 267.436 75.7188C282.336 71.9595 297.436 69.2445 312.636 67.7825C322.636 66.8427 332.136 68.7223 341.436 72.4817C369.136 83.7596 396.936 95.0376 424.636 106.42C433.136 109.97 441.236 114.565 448.936 119.682C468.836 132.944 476.636 153.098 478.536 176.489C481.436 211.89 492.636 243.844 514.736 271.203C515.936 272.665 517.236 274.023 518.536 275.38C518.536 273.605 518.536 271.934 518.536 270.159C514.836 268.175 512.936 264.311 510.636 261.074C493.036 236.43 484.236 208.339 481.436 177.951C479.836 161.034 476.736 144.535 465.436 131.169C456.036 119.891 444.236 111.954 431.236 106.42C401.036 93.5756 370.636 81.149 340.336 68.7223C326.136 62.8745 311.636 64.232 297.036 66.7383C229.136 78.1206 167.736 105.271 113.136 148.921C100.436 159.05 87.9361 169.493 77.2361 182.024C68.1361 192.675 65.2361 205.52 65.0361 219.2C64.5361 238.727 64.5361 258.463 64.3361 278.095C64.3361 282.064 64.4361 286.032 63.5361 290C64.5361 290 65.5361 290 66.5361 290Z" fill="white"></path><path d="M499.536 290C487.536 276.738 477.736 262.014 471.236 244.993C465.136 229.016 461.936 212.412 462.236 195.182C462.436 187.245 462.836 179.205 461.736 171.268C460.336 161.348 456.436 152.576 448.636 146.937C417.636 124.799 385.536 104.749 349.536 92.8446C330.336 86.4747 311.336 90.0251 292.636 96.0818C269.336 103.6 247.436 114.461 225.436 125.217C192.136 141.507 159.036 158.111 125.636 174.192C94.736 189.125 80.436 214.709 79.836 249.587C79.536 263.058 80.736 276.529 82.536 290C83.236 290 83.836 290 84.536 290C84.836 281.333 83.336 272.665 82.836 263.998C82.136 250.736 82.736 237.578 85.736 224.63C90.736 203.431 103.836 189.125 122.036 179.309C143.236 167.927 164.936 157.797 186.536 147.355C216.536 132.735 246.136 117.28 277.036 104.54C290.336 99.0057 304.036 94.7243 318.336 92.9491C330.636 91.4871 342.736 92.5314 354.236 97.1261C386.336 109.762 416.036 127.201 444.436 147.041C455.136 154.456 459.536 165.525 459.536 178.787C459.536 192.153 458.736 205.52 461.136 218.886C465.836 245.201 476.736 268.175 494.136 287.911C494.636 288.538 495.036 289.373 495.536 290C496.836 290 498.236 290 499.536 290Z" fill="white"></path><path d="M464.536 290C457.336 279.035 449.136 268.697 442.836 256.897C433.136 238.727 427.136 219.826 430.236 198.628C432.336 184.321 427.836 172.521 418.036 162.288C400.036 143.491 379.736 128.976 354.336 123.441C336.636 119.578 319.536 122.293 302.936 128.767C261.736 145.057 220.636 161.557 179.436 177.951C163.436 184.321 147.436 190.796 131.336 196.852C121.936 200.403 116.336 206.668 114.036 217.111C108.836 241.129 106.036 265.356 105.536 289.896C106.536 289.896 107.536 289.896 108.536 289.896C108.436 265.251 111.936 241.129 116.836 217.111C118.536 209.07 122.836 203.431 130.436 200.507C153.336 191.527 176.136 182.337 198.936 173.148C232.136 159.886 265.636 147.146 298.536 133.257C340.836 115.401 376.836 126.887 409.336 157.38C411.236 159.155 412.836 161.034 414.736 162.81C425.236 172.417 429.536 184.321 427.436 198.732C424.236 221.288 430.936 241.233 441.536 260.239C446.636 269.428 452.636 277.991 458.736 286.45C459.536 287.494 460.836 288.329 460.436 290C461.836 290 463.236 290 464.536 290Z" fill="white"></path><path d="M129.536 290C129.036 282.586 128.536 275.067 128.136 267.653C127.136 244.157 136.536 227.136 156.936 216.902C164.736 212.934 172.636 209.384 180.836 206.46C198.136 200.09 215.936 195.599 233.536 190.482C255.736 184.008 276.436 173.566 297.936 165.212C314.136 158.946 330.736 154.873 348.236 156.335C357.636 157.171 366.536 159.99 374.536 165.212C387.236 173.461 392.136 185.992 392.036 201.029C391.836 226.927 403.236 247.812 418.136 267.026C423.236 273.605 428.736 279.975 434.136 286.45C434.836 287.285 435.436 288.538 437.236 288.016C438.136 285.301 435.936 284.152 434.636 282.586C423.036 269.115 411.936 255.331 403.836 239.145C397.336 226.196 394.936 212.307 394.636 197.897C394.236 174.505 379.536 161.661 361.636 156.231C341.936 150.174 322.736 153.725 303.736 160.095C287.536 165.525 272.136 172.939 256.336 179.309C235.636 187.767 213.936 192.467 192.836 199.15C178.336 203.745 164.136 209.175 150.936 217.111C133.836 227.449 125.536 243.009 125.436 263.58C125.436 272.457 125.736 281.333 127.536 290C128.236 290 128.836 290 129.536 290Z" fill="white"></path><path d="M149.536 290C143.236 269.428 152.836 255.331 167.536 243.948C189.836 226.614 215.036 215.962 242.236 210.637C263.036 206.668 282.836 199.985 301.236 188.812C310.036 183.486 319.336 179.205 329.936 179.1C346.636 178.996 356.736 188.394 358.736 205.729C359.236 210.532 359.736 215.44 360.036 220.244C361.436 238.623 369.936 253.555 381.436 266.818C387.636 273.918 394.336 280.393 401.236 286.658C402.236 287.494 403.536 288.12 403.636 289.791C404.636 289.791 405.636 289.791 406.636 289.791C406.836 287.285 404.836 286.241 403.436 284.883C392.036 274.336 381.136 263.58 372.636 250.214C364.736 237.683 362.636 223.585 361.636 209.07C361.436 205.833 361.036 202.491 360.236 199.254C356.436 182.337 342.236 173.252 324.736 176.281C316.736 177.638 309.136 180.353 302.336 184.739C282.736 197.27 261.136 203.745 238.836 208.339C210.336 214.292 184.336 226.092 161.536 245.097C153.136 252.094 147.236 260.865 145.136 272.248C144.036 278.304 145.436 283.943 146.536 289.687C147.536 290 148.536 290 149.536 290Z" fill="white"></path><path d="M196.536 290C194.136 275.589 196.636 262.432 205.336 250.632C211.836 241.964 220.436 237.056 230.436 234.759C247.436 230.895 263.536 224.525 279.036 216.171C288.236 211.263 298.036 207.817 308.736 208.444C316.936 208.966 320.336 211.472 322.336 219.617C328.636 244.784 340.036 267.131 356.036 286.972C356.736 287.911 357.936 288.538 357.536 290C358.836 290 360.236 290 361.536 290C355.936 281.646 349.236 274.127 344.236 265.356C335.936 251.049 329.136 236.012 325.236 219.722C322.636 209.07 318.436 205.729 307.936 205.52C296.236 205.311 285.636 209.383 275.536 214.814C261.436 222.437 246.736 227.971 231.136 231.626C211.836 236.221 199.036 248.334 194.036 268.802C192.336 275.798 193.036 282.899 193.636 290C194.536 290 195.536 290 196.536 290Z" fill="white" stroke="white" stroke-width="4"></path></g></g></svg>