<svg xmlns="http://www.w3.org/2000/svg" width="498" height="608" viewBox="0 0 498 608" fill="none"><mask id="mask0_2412_10375" style="mask-type:alpha" maskUnits="userSpaceOnUse" x="0" y="0" width="498" height="608"><rect width="498" height="608" fill="#D9D9D9"></rect></mask><g mask="url(#mask0_2412_10375)"><g opacity="0.15"><path fill-rule="evenodd" clip-rule="evenodd" d="M495.005 733.545C490.06 754.31 482.222 774.768 472.115 794.165H469.297C479.587 774.61 487.557 753.942 492.562 732.948C507.517 670.24 500.044 603.357 468.345 516.09C440.232 438.72 408.225 369.982 373.202 311.78C344.43 263.965 308.885 225.257 271.25 184.277C261.52 173.67 251.45 162.707 241.597 151.66C231.37 140.21 221.187 128.382 211.337 116.942C197.555 100.928 183.297 84.3881 168.747 68.6021C165.927 65.5651 163.057 62.365 160.117 59.095C141.525 38.44 120.455 15.04 95.479 6.17804C88.645 3.76004 81.662 2.51501 74.705 2.51501H74.692C25.032 2.54001 -15.593 64.77 -30.753 91.527C-58.085 139.77 -78.25 192.237 -97 243.933V236.573C-78.873 186.89 -59.22 136.67 -32.938 90.27C-13.833 56.555 25.557 6.10352e-05 74.692 6.10352e-05H74.705C81.942 6.10352e-05 89.217 1.27003 96.31 3.78503C121.897 12.865 143.185 36.522 161.972 57.397C164.915 60.658 167.782 63.843 170.59 66.882C185.177 82.69 199.435 99.255 213.242 115.27C223.08 126.71 233.26 138.525 243.467 149.975C253.305 160.998 263.375 171.96 273.104 182.555C310.825 223.632 346.457 262.428 375.35 310.462C410.457 368.81 442.537 437.695 470.712 515.223C502.584 602.977 510.08 670.312 495.005 733.545" fill="white"></path><path fill-rule="evenodd" clip-rule="evenodd" d="M-97 525.598C-95.291 527.698 -93.461 529.76 -91.458 531.763C-67.606 555.567 -36.49 569.982 -6.4 583.922C-2.238 585.865 1.937 587.792 6.075 589.745C58.14 614.283 125.62 649.377 185.837 703.333C196.2 712.623 206.37 722.998 217.122 733.985C238.962 756.263 261.277 779.027 286.667 794.165H281.82C257.65 778.93 236.277 757.13 215.342 735.755C204.612 724.805 194.467 714.465 184.165 705.225C124.18 651.477 56.907 616.505 5.002 592.04C0.874999 590.087 -3.288 588.16 -7.463 586.23C-37.748 572.192 -69.058 557.678 -93.228 533.558C-94.558 532.237 -95.803 530.882 -97 529.505V525.598" fill="white"></path><path fill-rule="evenodd" clip-rule="evenodd" d="M456.32 720.85C447.055 748.425 429.122 776.135 404.685 794.165H400.314C425.79 776.575 444.455 748.243 453.939 720.045C470.895 669.64 468.442 610.987 446.457 540.723C425.985 475.343 393.82 405.982 353.415 340.15C317.832 282.165 272.74 237.073 215.987 187.207C213.462 184.985 210.85 182.665 208.14 180.272C171.945 148.192 122.372 104.248 74.07 104.248H74.057C66.415 104.248 58.97 105.395 51.937 107.643C3.842 123.047 -23.868 171.618 -46.658 221.825C-68.35 269.618 -83.62 320.19 -97 370.558V360.84C-84.171 313.38 -69.413 265.87 -48.94 220.765C-25.918 170.045 2.14399 120.935 51.18 105.225C58.457 102.905 66.147 101.72 74.057 101.72C74.07 101.72 74.07 101.72 74.07 101.72C123.325 101.72 173.312 146.02 209.8 178.37C212.51 180.763 215.122 183.08 217.635 185.29C274.57 235.315 319.81 280.567 355.552 338.817C396.067 404.823 428.33 474.377 448.85 539.965C471.017 610.755 473.459 669.935 456.32 720.85" fill="white"></path><path fill-rule="evenodd" clip-rule="evenodd" d="M340.292 726.185C311.35 726.185 276.937 710.658 238.01 680.042C180.015 634.425 118.27 594.897 60.1892 558.973C56.6972 556.812 53.1572 554.65 49.6072 552.49C26.7052 538.562 3.03721 524.145 -14.7128 504.04C-39.6148 475.817 -45.8278 439.22 -46.6458 413.487C-46.8648 406.373 -46.8048 398.595 -46.4378 389.71C-36.0128 323.535 -19.7648 256.03 28.0002 211.573C45.1752 195.605 65.3302 187.5 87.9002 187.5H87.9122C129.502 187.5 172.225 214.453 200.755 234.73C296.372 302.672 369.505 412.39 406.675 543.64C419.712 589.685 432.967 655.775 397.715 697.973C382.064 716.688 362.752 726.185 340.292 726.185ZM87.9122 184.973H87.9002C64.6692 184.973 43.9422 193.297 26.3022 209.718C-22.0378 254.7 -38.4298 322.692 -48.9398 389.465C-49.3198 398.56 -49.3798 406.397 -49.1598 413.575C-48.3178 439.723 -41.9948 476.94 -16.5928 505.725C1.4002 526.11 25.2522 540.625 48.3122 554.663C51.8522 556.823 55.3802 558.973 58.8722 561.132C116.892 597.022 178.562 636.5 236.472 682.042C275.84 713.013 310.775 728.723 340.292 728.723C363.522 728.723 383.492 718.92 399.642 699.61C435.665 656.482 422.287 589.55 409.092 542.945C371.775 411.145 298.3 300.94 202.207 232.655C173.41 212.183 130.209 184.973 87.9122 184.973V184.973Z" fill="white"></path><path fill-rule="evenodd" clip-rule="evenodd" d="M14.3402 364.635C19.1752 334.84 33.2602 282.678 73.4222 265.368C84.4952 260.595 96.3952 258.178 108.81 258.178C142.452 258.178 180.807 275.562 222.812 309.862C290.842 365.393 343.675 461.17 357.43 553.87C361.74 582.897 361.922 620.41 338.327 634.375C330.977 638.72 322.495 640.93 313.095 640.93C280.99 640.93 242.965 615.54 217.807 598.743C214.975 596.85 212.277 595.055 209.737 593.382C195.162 583.812 180.1 574.525 165.525 565.553C136.007 547.375 105.502 528.578 78.0002 506.665C58.2602 490.942 41.8542 472.132 26.3522 447.498C12.4592 425.402 13.3142 397.755 14.1452 371.02C14.2052 368.885 14.2802 366.748 14.3402 364.635ZM108.81 248.035H108.797C95.0302 248.047 81.7852 250.732 69.4552 256.055C24.7272 275.33 9.45723 331.555 4.34223 363.355L4.28223 364.025C4.22023 366.235 4.16023 368.457 4.08723 370.703C3.24523 397.655 2.30523 428.198 17.8452 452.917C33.9702 478.553 51.0952 498.158 71.7502 514.612C99.7272 536.902 130.502 555.86 160.262 574.195C174.777 583.143 189.792 592.382 204.232 601.868C206.76 603.527 209.432 605.31 212.24 607.19C238.412 624.658 277.95 651.062 313.095 651.062C324.312 651.062 334.517 648.388 343.43 643.115C366.257 629.602 374.312 599.073 367.392 552.38C353.28 457.312 299.02 359.02 229.147 301.99C185.312 266.187 144.822 248.035 108.81 248.035V248.035Z" fill="white"></path><path fill-rule="evenodd" clip-rule="evenodd" d="M245.077 526.538C220.455 526.538 186.79 509.29 174.104 502.795C143.942 487.343 74.7523 444.018 83.8603 375.66C93.0153 342.237 116.562 335.192 134.702 335.192C152.022 335.18 172.567 341.785 191.084 353.308C215 368.187 235.532 389.893 250.459 416.09C258.152 429.59 282.395 476.232 271.567 509.74C267.965 520.885 259.055 526.538 245.077 526.538ZM134.702 332.655V332.655C115.682 332.655 91.0123 340.027 81.4053 375.158C72.0423 445.288 142.32 489.355 172.97 505.053C185.787 511.62 219.845 529.065 245.077 529.065C260.275 529.065 269.992 522.828 273.972 510.522C285.117 476.025 260.457 428.553 252.645 414.832C237.51 388.27 216.685 366.248 192.405 351.147C173.507 339.393 152.475 332.655 134.702 332.655V332.655Z" fill="white"></path></g></g></svg>