<svg xmlns="http://www.w3.org/2000/svg" width="336" height="698" viewBox="0 0 336 698" fill="none"><mask id="mask0_2412_10355" style="mask-type:alpha" maskUnits="userSpaceOnUse" x="0" y="0" width="336" height="698"><rect width="336" height="698" fill="#D9D9D9"></rect></mask><g mask="url(#mask0_2412_10355)"><g opacity="0.15"><path fill-rule="evenodd" clip-rule="evenodd" d="M-35.5432 -42C-31.5662 -36.831 -27.5586 -31.8 -23.6277 -26.9301C-19.574 -21.9451 -15.4511 -16.9679 -11.3129 -11.9523C12.8329 17.2059 37.8155 47.3688 50.3375 83.6517C67.5121 133.425 47.4354 175.582 26.1764 220.201L23.1591 226.551C0.72541 273.87 -3.71988 316.404 9.5392 356.588C23.3894 398.566 52.2109 434.29 78.1762 464.472C84.3259 471.626 90.6599 478.816 96.8019 485.762C118.813 510.664 141.546 536.409 159.32 565.496C162.637 570.927 165.992 576.626 169.232 582.15C189.162 616.05 209.761 651.109 245.462 667.539C259.112 673.822 273.991 677.509 288.41 681.067C298.398 683.548 308.724 686.104 318.605 689.52C335.68 695.408 352.363 702.935 368.502 710.21C378.866 714.892 389.584 719.731 400.294 724.075C456.033 746.73 507.787 749.108 554.136 731.153C562.912 727.753 572.547 723.28 581 717.672V719.965C573.768 724.655 565.031 729.019 554.835 732.969C508.01 751.112 455.772 748.724 399.58 725.882C388.816 721.52 378.075 716.669 367.695 711.99C351.611 704.725 334.966 697.226 317.984 691.355C308.179 687.967 297.891 685.42 287.934 682.958C273.454 679.372 258.475 675.666 244.663 669.308C208.387 652.626 187.642 617.304 167.566 583.144C164.326 577.629 160.986 571.927 157.669 566.517C139.988 537.569 117.309 511.898 95.3662 487.053C89.2165 480.106 82.8595 472.899 76.7175 465.745C50.6446 435.414 21.662 399.52 7.69659 357.205C-5.72371 316.503 -1.24004 273.495 21.4163 225.731L24.4336 219.358C45.5007 175.122 65.4315 133.31 48.5026 84.2882C36.0957 48.3198 11.2359 18.3104 -12.787 -10.7175C-16.9329 -15.7101 -21.0787 -20.7104 -25.1248 -25.7108C-29.3781 -30.9488 -33.7083 -36.4016 -38 -42H-35.5432Z" fill="white"></path><path fill-rule="evenodd" clip-rule="evenodd" d="M23.7677 -12.7158C16.1222 -22.3033 8.41541 -32.0213 1 -42H10.6776C16.9504 -33.7241 23.3919 -25.5938 29.7951 -17.5633C38.3685 -6.75623 47.2639 4.40363 55.4461 15.6556C84.8164 56.0306 121.364 106.254 105.483 160.297C98.8573 182.824 86.258 202.781 74.0498 222.087C57.8924 247.705 42.6168 271.88 39.5494 301.993C30.6156 389.401 104.103 457.918 163.15 512.992L167.904 517.429C204.184 551.293 237.848 580.572 282.609 596.01C302.31 602.8 323.39 606.208 343.758 609.504C347.86 610.167 351.955 610.832 356.042 611.515C357.515 611.758 359.187 612.069 361.019 612.395C375.681 615.054 402.973 620.008 415.465 611.206C418.932 608.753 420.987 605.402 421.754 600.955C424.054 587.454 418.349 570.544 413.288 555.629C412.076 552.063 410.933 548.692 409.936 545.489C403.365 524.188 395.428 502.71 385.673 479.809C369.462 441.722 349.172 401.854 321.803 354.365C315.17 342.905 307.585 330.978 299.534 318.361C261.498 258.619 218.378 190.908 247.12 122.821C263.837 83.1825 293.437 45.5073 317.34 17.1206C336.342 -5.44464 356.134 -25.2256 376.448 -42H388.825C366.242 -24.3052 344.264 -2.84448 323.221 22.1521C299.672 50.1094 270.539 87.1863 254.213 125.874C227.066 190.179 269.021 256.042 306.052 314.165C314.119 326.859 321.757 338.84 328.459 350.471C356.004 398.24 376.425 438.351 392.774 476.737C402.621 499.883 410.65 521.624 417.314 543.177C418.272 546.286 419.392 549.598 420.596 553.119C425.948 568.916 432.014 586.817 429.353 602.275C428.233 608.783 425.051 613.931 419.882 617.574C404.753 628.228 376.525 623.106 359.654 620.055C357.852 619.728 356.211 619.427 354.77 619.183C350.705 618.5 346.626 617.835 342.538 617.181C321.833 613.828 300.438 610.374 280.125 603.369C233.914 587.435 199.583 557.604 162.659 523.131L157.905 518.693C97.5997 462.45 22.5484 392.453 31.8733 301.188C35.1247 269.257 51.6042 243.156 67.5546 217.93C79.4484 199.077 91.764 179.564 98.0751 158.088C112.883 107.75 77.5927 59.229 49.204 20.2423C41.1214 9.13611 32.3027 -1.96246 23.7677 -12.7158Z" fill="white"></path><path fill-rule="evenodd" clip-rule="evenodd" d="M270.745 524.128C241.673 524.128 213.206 507.301 186.795 489.108C106.341 433.703 67.1104 376.111 70.1847 317.858C74.6544 281.664 97.5624 244.189 128.543 222.5C139.062 215.14 151.62 207.596 165.113 207.596C168.264 207.596 171.385 208.025 174.398 208.83C191.456 213.476 203.769 228.388 214.663 241.552C264.788 302.157 317.212 374.65 326.819 453.638C329.924 479.168 322.142 512.242 289.965 521.469C283.809 523.239 277.346 524.128 270.745 524.128ZM165.113 205.672C151.099 205.672 138.203 213.361 127.439 220.905C96.029 242.901 72.799 280.897 68.2527 317.697C65.1477 376.729 104.677 434.901 185.706 490.717C212.378 509.08 241.128 526.075 270.745 526.075C277.514 526.075 284.161 525.157 290.486 523.342C323.844 513.778 331.925 479.692 328.728 453.414C319.068 373.901 266.451 301.145 216.25 240.448C205.08 226.931 192.537 211.751 174.911 206.96C171.722 206.101 168.433 205.672 165.113 205.672Z" fill="white"></path><path fill-rule="evenodd" clip-rule="evenodd" d="M222.767 438.121C205.172 438.121 186.342 428.144 179.082 423.84C146.514 404.635 116.806 366.788 123.867 325.594C130.284 303.935 144.659 291.952 164.347 291.952C181.42 291.952 200.38 301.52 213.858 316.907C249.155 357.28 262.112 391.178 252.345 417.643C247.323 431.233 237.364 438.121 222.767 438.121ZM164.347 290.013C143.739 290.013 128.689 302.494 121.988 325.141C114.751 367.369 144.958 405.965 178.108 425.525C185.499 429.904 204.689 440.068 222.767 440.068C238.261 440.068 248.818 432.748 254.139 418.318C264.19 391.14 251.103 356.588 215.299 315.635C201.484 299.834 181.965 290.013 164.347 290.013Z" fill="white"></path><path fill-rule="evenodd" clip-rule="evenodd" d="M49.3622 -42C67.224 -16.3556 87.0339 7.87606 106.338 31.4474L108.546 34.1424C110.119 36.0542 111.714 38.0197 113.355 40.0621C130.749 61.5834 152.377 88.3949 180.6 89.9842C213.079 91.8039 241.395 59.3568 258.282 39.97C267.064 29.9041 275.868 19.5926 284.381 9.62664C298.968 -7.44916 313.946 -24.978 329.377 -42H332C316.178 -24.5864 300.801 -6.61226 285.846 10.9012C277.325 20.8672 268.506 31.1787 259.74 41.2445C242.606 60.9078 213.908 93.8462 180.485 91.9191C151.426 90.2837 129.484 63.1267 111.86 41.3059C110.234 39.2559 108.623 37.2903 107.066 35.3785L104.857 32.6759C85.2316 8.74367 65.1073 -15.8719 47 -42H49.3622Z" fill="white"></path><path fill-rule="evenodd" clip-rule="evenodd" d="M96.4306 -42C118.336 -13.8533 147.09 7.81821 171.465 13.4676C211.096 22.644 245.804 -10.1565 271.501 -42H274C247.898 -9.36155 212.257 24.9285 171.037 15.3739C145.913 9.57014 116.28 -12.9272 94 -42H96.4306Z" fill="white"></path></g></g></svg>