<svg xmlns="http://www.w3.org/2000/svg" width="372" height="536" viewBox="0 0 372 536" fill="none"><mask id="mask0_2412_11700" style="mask-type:alpha" maskUnits="userSpaceOnUse" x="0" y="0" width="372" height="536"><rect width="372" height="536" fill="#D9D9D9"></rect></mask><g mask="url(#mask0_2412_11700)"><g opacity="0.15"><path fill-rule="evenodd" clip-rule="evenodd" d="M468.472 571.463C459.149 568.334 449.513 565.091 440.127 562.104C395.006 547.739 343.935 529.25 308.951 491.339C282.545 462.723 275.547 424.407 268.777 387.342C266.928 377.202 265.017 366.726 262.734 356.621C257.154 331.902 250.277 307.112 241.709 280.843C239.08 272.75 236.588 264.294 234.183 256.102C229.009 238.494 223.654 220.301 216.24 203.529C205.093 178.356 183.304 171.357 165.561 168.06C143.217 163.928 119.535 158.927 97.2776 147.451C62.5187 129.516 37.3182 98.5093 17.9774 49.8782C8.09046 25.0077 -0.764616 -0.75679 -9.2627 -26V-3.73503C-2.78638 15.1122 3.98364 34.0626 11.3368 52.5521C31.0765 102.207 58.126 135.349 94.0135 153.858C117.14 165.784 141.402 170.924 164.267 175.161C188.374 179.623 201.96 188.979 209.694 206.463C216.926 222.802 222.212 240.77 227.316 258.15C229.739 266.378 232.248 274.905 234.913 283.083C243.411 309.139 250.225 333.723 255.754 358.221C258.004 368.191 259.895 378.588 261.737 388.644C268.69 426.718 275.887 466.094 303.708 496.246C339.882 535.451 391.975 554.338 437.976 568.974C447.299 571.946 456.909 575.175 466.205 578.304C466.77 578.489 467.342 578.681 467.906 578.873H490.737C483.272 576.441 475.85 573.944 468.472 571.463Z" fill="white"></path><path fill-rule="evenodd" clip-rule="evenodd" d="M242.596 544.88C218.18 533.153 204.56 519.859 199.749 503.039C194.002 482.97 199.482 461.7 204.779 441.151C205.367 438.901 205.943 436.665 206.503 434.429C222.331 371.334 218.967 320.04 196.21 277.621C174.224 236.628 136.372 211.262 99.766 186.737C62.5559 161.809 24.0807 136.036 2.42289 93.8532C-2.04967 85.1542 -5.8803 76.104 -9.2627 66.873V72.2223C-6.29325 79.8965 -3.0032 87.4252 0.745587 94.7333C22.6219 137.356 61.3096 163.254 98.7111 188.329C135.134 212.725 172.784 237.948 194.551 278.521C217.07 320.505 220.38 371.349 204.671 433.971C204.111 436.192 203.533 438.42 202.957 440.671C197.842 460.515 192.04 482.985 197.925 503.556C204.468 526.416 226.09 539.05 241.779 546.583C270.916 560.552 301.6 570.665 332.277 578.873H339.737C306.843 570.358 273.813 559.839 242.596 544.88" fill="white"></path><path fill-rule="evenodd" clip-rule="evenodd" d="M170.296 552.555C148.068 539.736 136.15 526.202 132.802 509.962C128.801 490.584 135.49 470.87 141.954 451.823C142.669 449.737 143.372 447.665 144.059 445.591C163.496 387.078 163.966 338.356 145.488 296.644C127.637 256.335 93.6898 229.67 60.8599 203.887C27.4878 177.681 -7.01904 150.587 -24.4753 109.177C-28.081 100.637 -31.0555 91.8102 -33.5938 82.8447L-33.9741 87.9008C-31.7152 95.3655 -29.1431 102.715 -26.122 109.889C-8.49077 151.731 26.2079 178.959 59.7504 205.317C92.4171 230.965 126.183 257.481 143.857 297.377C162.141 338.661 161.652 386.954 142.361 445.029C141.675 447.088 140.971 449.153 140.267 451.24C134.025 469.633 126.947 490.459 131.042 510.322C135.597 532.394 155.12 545.872 169.403 554.106C195.929 569.381 224.191 581.12 252.581 591.057L259.628 591.587C229.164 581.202 198.716 568.913 170.296 552.555" fill="white"></path><path fill-rule="evenodd" clip-rule="evenodd" d="M112.29 321.428C94.5539 280.821 60.7767 254.848 28.1163 229.736C10.0274 215.82 -8.40102 201.64 -24.2627 184.873V187.537C-8.60207 203.853 9.40226 217.713 27.0848 231.31C59.5619 256.292 93.1423 282.119 110.677 322.257C146.978 405.376 68.2007 481.896 16.0717 532.528L9.74894 538.704C-2.04413 550.196 -13.7257 562.372 -24.2627 575.839V578.873C-13.4308 564.792 -1.31594 552.094 10.9368 540.148L17.2596 533.995C69.787 482.964 149.163 405.86 112.29 321.428" fill="white"></path><path fill-rule="evenodd" clip-rule="evenodd" d="M74.2444 345.151C72.4807 312.51 51.6814 288.601 33.7558 271.427C20.2314 258.478 5.13611 246.395 -11.2627 235.316V237.506C4.66676 248.344 19.346 260.113 32.5234 272.736C50.2058 289.697 70.7363 313.235 72.4558 345.258C74.0182 374.315 60.4497 398.956 48.7906 414.494C31.9424 436.959 10.0479 455.1 -11.2627 472.587V474.912C10.491 457.084 32.9479 438.608 50.215 415.568C62.0555 399.788 75.8316 374.77 74.2444 345.151" fill="white"></path><path fill-rule="evenodd" clip-rule="evenodd" d="M-9.2627 282.731C6.59768 297.734 16.9236 315.455 20.4416 334.277C26.4258 366.264 9.31743 395.508 -9.2627 416.725V419.873C10.2229 398.159 28.7849 367.589 22.487 333.896C18.7784 314.055 7.72438 295.448 -9.2627 279.873V282.731" fill="white"></path><path d="M-9.2627 282.731C6.59768 297.734 16.9236 315.455 20.4416 334.277C26.4258 366.264 9.31743 395.508 -9.2627 416.725V419.873C10.2229 398.159 28.7849 367.589 22.487 333.896C18.7784 314.055 7.72438 295.448 -9.2627 279.873V282.731" stroke="white" stroke-width="4"></path></g></g></svg>