<svg className="svg-icon" style="width: 1em; height: 1em;vertical-align: middle;fill: currentColor;overflow: hidden;" viewBox="0 0 1024 1024" height="35px" width="40px" version="1.1" xmlns="http://www.w3.org/2000/svg"><path d="M502.618545 254.493282l12.963465 3.525152 8.64231-32.977235 33.204664-19.217768v38.435536L533.321488 268.252748l9.438312 9.324598 14.782899-14.669184v26.495503h13.532037v-26.268074l14.669184 14.55547 9.552027-9.438313-24.221211-23.993781v-38.321821l37.753248 21.833204 8.869739 33.090949 12.963465-3.411438-5.458301-20.241199 18.194337 10.461743 6.822876-11.712604-18.080622-10.461743 20.127485-5.344587-3.525153-13.077179-33.204664 8.869739-37.639534-21.719489 37.866963-21.833204 33.09095 8.869739 3.411438-12.963465-20.127485-5.458301 18.194337-10.461743-6.822877-11.712604-18.080622 10.461743 5.344587-20.127484-13.07718-3.525153-8.869739 33.318379-37.639533 21.719489V138.731816l24.22121-24.221211-9.438312-9.438312-14.782898 14.782899V98.590561h-13.532038V119.400333l-14.782898-14.782898-9.552027 9.552026 24.334925 24.334925v43.666408L524.22432 163.066741l-8.64231-32.977235-12.84975 3.525153 5.344586 20.127484-22.856635-13.190894-6.822876 11.712604 22.74292 13.07718-19.900055 5.458301 3.411438 13.077179 32.86352-8.983454 33.204664 19.217768-33.318378 19.217768-26.040644-7.16402c1.364575 4.889728 2.501721 9.779456 3.411438 14.782899l6.368017 1.705719-5.572015 3.184009c0.682288 4.889728 1.137146 9.89317 1.364575 14.896613l10.802887-6.254304-5.117157 20.013771z" fill="#3BE3C3" /><path d="M336.026652 684.334481l10.916602-10.802887zM514.672293 505.68884l8.64231-8.64231-8.64231 8.64231zM405.16513 407.553137h91.995114v-66.864186h-91.995114v66.864186z m11.371461-55.492726h69.252193v44.121266h-69.252193v-44.121266zM405.16513 334.662077h91.995114v-66.864187h-91.995114v66.864187z m11.371461-55.379012h69.252193v44.121266h-69.252193v-44.121266z" fill="#FFFFFF" /><path d="M164.545031 571.41588V565.161577c0-43.325264 18.876624-75.620211 18.876624-75.620211 6.254303-12.622321 12.622321-25.244642 25.244642-37.753248v-204.686286c0-75.620211 62.99789-138.504386 138.504386-138.504386 75.620211 0 138.504386 62.99789 138.504386 138.504386h-69.252193c-0.341144-38.094392-31.157801-68.911049-69.252193-69.252193-38.094392 0.341144-68.911049 31.157801-69.252193 69.252193v229.930928l-18.876624 18.876624c-12.622321 18.876624-25.244642 50.375569-25.244642 75.620211-0.113715 30.13437 11.826319 59.017879 33.090949 80.282509 13.418323 13.418323 29.793226 23.084064 47.532704 28.314937l9.324598-9.324598c-18.308051-4.20744-35.137812-13.532038-48.783565-27.064075-18.990339-18.990339-29.793226-45.372127-29.793226-72.208773 0-22.174348 11.257746-50.944142 22.629206-68.342477l21.378345-21.378345V247.101832c0.227429-31.726374 26.268073-57.653304 57.880733-57.994447 31.61266 0.341144 57.653304 26.381788 57.880733 57.994447l0.113715 11.257746H496.932815v-11.37146c0-2.046863 0-4.20744-0.113715-6.254303-0.227429-5.003443-0.682288-10.006885-1.364575-14.896613-0.227429-1.705719-0.454858-3.297723-0.796002-5.003443-0.909717-5.003443-2.046863-9.89317-3.411438-14.782898-6.936591-24.107496-20.01377-46.395558-38.54925-64.817324C424.155469 112.691172 386.62965 96.998556 347.056968 96.998556c-39.572682 0-77.098501 15.692615-105.640866 44.234981-28.542365 28.542365-44.234981 66.068184-44.23498 105.640866v200.137701c-11.712604 12.736036-18.080622 25.585786-23.766352 36.957246-2.274292 4.093726-20.241199 37.070961-20.2412 80.964798v6.254303c0 73.004775 40.482399 136.684953 100.182565 169.775902l8.414881-8.41488c-57.767018-30.361799-97.225986-91.199112-97.225985-161.133593z" fill="#FFFFFF" /><path d="M497.160244 412.55658h-91.995114v69.138478l22.174348 22.174348c11.144031 11.144031 19.104053 26.495502 22.174348 41.278401l9.438312-9.438312c-4.43487-15.010328-12.963465-29.338368-23.538923-39.913826l-18.876624-18.876624V423.814325h69.252193v27.860078c7.732593 11.485175 14.782898 23.652637 20.923487 36.161244l8.414881-8.414881c-5.230872-10.348029-11.257746-20.696058-17.966908-31.044086v-35.8201zM372.529039 647.945808l51.171572-51.171571z" fill="#FFFFFF" /><path d="M383.786785 500.230539V246.988118c0-18.762909-17.739478-36.616102-36.616102-36.616102s-36.616102 17.739478-36.616102 36.616102v253.242421c-26.381788 10.802887-44.121266 38.77668-44.121266 71.299056 0.227429 21.49206 8.64231 41.619545 23.766352 56.743587 14.100611 14.100611 32.522376 22.401777 52.308717 23.652637l11.59889-11.59889c-2.274292 0.227429-4.662299 0.341144-7.050306 0.454859-38.094392-0.341144-68.911049-31.157801-69.252193-69.252193 0-31.498945 18.876624-56.743587 44.121266-62.99789v-261.543587c0-12.622321 12.622321-25.244642 25.244642-25.244642s25.244642 12.622321 25.244642 25.244642v261.429872c25.244642 6.254303 44.121266 31.498945 44.121266 62.99789 0 2.388007-0.113715 4.776013-0.454859 7.050305l11.712604-11.712604c-1.592004-30.248084-18.876624-56.175014-44.007551-66.523042zM449.286396 571.188451l12.963465-13.077179z" fill="#FFFFFF" /><path d="M372.415325 508.531705v-261.543587c0-12.622321-12.622321-25.244642-25.244642-25.244642s-25.244642 12.622321-25.244642 25.244642v261.429872c-25.130927 6.254303-44.121266 31.498945-44.121266 62.99789 0.341144 38.094392 31.157801 68.911049 69.252193 69.252193 2.388007 0 4.776013-0.113715 7.050306-0.454858l61.747029-61.74703c0.227429-2.274292 0.454858-4.662299 0.454859-7.050305 0.227429-31.38523-18.649195-56.629872-43.893837-62.884175z" fill="#85F9E3" /><path d="M267.001888 651.812104a112.933384 112.933384 0 0 1-33.09095-80.282509c0-25.244642 12.622321-56.629872 25.244642-75.620211l18.876624-18.876624V246.988118c0.341144-38.094392 31.157801-68.911049 69.252194-69.252194 38.094392 0.341144 68.911049 31.157801 69.252193 69.252194h69.252193c0-75.620211-62.99789-138.504386-138.504386-138.504387-75.620211 0-138.504386 62.99789-138.504387 138.504387v204.686285c-12.622321 12.622321-18.876624 25.244642-25.244642 37.753248 0 0-18.876624 32.181233-18.876624 75.620211v6.254303c0 69.934481 39.458967 130.771793 97.225986 161.474737l52.763575-52.763576c-17.966907-5.230872-34.34181-14.896613-47.646418-28.201222z" fill="#85F9E3" /><path d="M416.536591 279.283065h69.252193v44.121266h-69.252193zM485.788784 423.92804h-69.252193V477.03276l18.876624 18.876624c10.461743 10.461743 18.990339 24.903498 23.538923 39.913825l47.873848-47.873848c-6.140589-12.508606-13.190894-24.562354-20.923487-36.161243v-27.860078zM416.536591 352.060411h69.252193v44.121266h-69.252193z" fill="#85F9E3" /><path d="M510.009994 1016.039978c-68.228762 0-134.524375-13.418323-196.839977-39.686397-59.017879-24.903498-112.122599-60.382454-157.949584-105.527151l715.605997-715.605997c45.144697 45.826985 80.623654 98.931705 105.527151 157.949584 26.381788 62.315602 39.686396 128.611216 39.686397 196.839977 0 68.342476-13.418323 134.63809-39.800111 196.953693-25.472071 60.26874-61.974459 114.396891-108.483732 160.906163-46.509273 46.509273-100.637424 83.01166-160.906163 108.483731-62.201888 26.381788-128.497501 39.686396-196.839978 39.686397z m238.914381-567.20844c-44.576124 0-86.423098 17.28462-117.808328 48.66985L511.601999 617.015436c-31.38523 31.38523-48.66985 73.232204-48.66985 117.808329s17.28462 86.423098 48.66985 117.808328c31.38523 31.38523 73.232204 48.66985 117.808329 48.66985 44.576124 0 86.423098-17.28462 117.808328-48.66985l119.627763-119.627762C898.117934 701.732815 915.402554 659.885841 915.402554 615.196002s-17.28462-86.423098-48.66985-117.808328c-31.271516-31.271516-73.11849-48.556135-117.808329-48.556136z" fill="#3BE3C3" /><path d="M870.82643 160.906163c43.438978 44.803554 77.667074 96.543698 101.888284 153.855858 26.154359 61.860744 39.458967 127.587785 39.458967 195.361688 0 67.773903-13.304609 133.500944-39.458967 195.475403-25.244642 59.813881-61.5196 113.487174-107.574014 159.541588-46.168129 46.054414-99.841421 82.329373-159.541588 107.574014-61.860744 26.154359-127.587785 39.458967-195.475403 39.458967-67.773903 0-133.500944-13.304609-195.361688-39.458967-57.31216-24.22121-109.052304-58.449306-153.855858-101.888284L276.326485 755.292393l8.64231-8.64231 56.743587-56.743587 10.802887-10.802887 25.585786-25.585786 51.171571-51.171571 25.585786-25.585786 12.963465-12.963464 52.422432-52.422432 8.64231-8.64231 107.005441-107.005442 234.93437-234.820655M629.410328 905.281954c45.71327 0 88.469961-17.739478 120.651193-49.806996l119.627763-119.627762c32.067518-32.067518 49.806996-74.937923 49.806996-120.651194 0-45.71327-17.739478-88.469961-49.806996-120.651194-32.067518-32.067518-74.937923-49.806996-120.651194-49.806996-45.71327 0-88.469961 17.739478-120.651194 49.806996L508.759134 614.172571c-32.067518 32.067518-49.806996 74.937923-49.806996 120.651194 0 45.71327 17.739478 88.469961 49.806996 120.651193 32.067518 32.067518 74.937923 49.806996 120.651194 49.806996m241.416102-755.747251L630.433759 390.041088l-107.005441 107.005442-8.64231 8.64231-52.422432 52.422432-12.963465 12.963464-25.585786 25.585786-51.171571 51.171571-25.585786 25.585786-10.802887 10.802887-56.743587 56.743587-8.64231 8.64231-121.333481 121.219767c92.336258 92.222543 219.696613 149.193559 360.475291 149.193559C791.681066 1020.019989 1020.019989 791.681066 1020.019989 510.009994c0-140.778679-56.971016-268.139034-149.193559-360.475291zM629.410328 897.321932c-43.552693 0-84.376235-16.829761-114.965464-47.418989-30.589228-30.589228-47.418989-71.412771-47.418989-114.965464s16.829761-84.376235 47.418989-114.965463L634.072626 500.344253c30.589228-30.589228 71.412771-47.418989 114.965464-47.418989s84.376235 16.829761 114.965464 47.418989c30.589228 30.589228 47.418989 71.412771 47.418989 114.965464s-16.829761 84.376235-47.418989 114.965463L744.375791 849.789228c-30.589228 30.589228-71.412771 47.532704-114.965463 47.532704z" fill="#3BE3C3" /><path d="M336.026652 684.334481l10.802887-10.802887 25.585786-25.585786 51.171571-51.171571 25.585786-25.585786 12.963465-12.963465 52.422432-52.422432 8.642309-8.64231 107.005442-107.005441 240.392671-240.392671C778.490172 57.198445 650.902388 0 510.009994 0c-38.890394 0-76.757357 4.321155-113.259744 12.622321-190.699389 43.211549-340.91638 193.42854-384.127929 384.127929C4.321155 433.252637 0 471.1196 0 510.009994c0 140.892393 57.198445 268.480178 149.534703 360.816436L270.640755 749.720378l8.64231-8.64231 56.743587-56.743587z m-74.255636 48.556135l-8.414881 8.414881-103.594003 103.594003c-39.231538-42.188118-70.503054-90.289395-92.904831-143.2804-25.6995-60.609883-38.662965-125.086063-38.662965-191.495391 0-36.843531 4.093726-73.573348 12.167463-109.166019 20.468629-90.289395 66.068184-172.732482 131.908939-238.573237 65.840755-65.840755 148.283842-111.440311 238.573238-131.908939 35.592671-8.073737 72.322488-12.167463 109.166018-12.167463 66.409328 0 130.885508 12.963465 191.495392 38.662965 52.991005 22.401777 101.205997 53.673293 143.2804 92.904831L515.240866 479.420766l-8.41488 8.414881-47.873848 47.873848-9.438312 9.438312-21.71949 21.719489-11.712604 11.712604-61.747029 61.747029-11.59889 11.59889-18.876624 18.876624-9.324597 9.324598-52.763576 52.763575z" fill="#3BE3C3" /><path d="M864.003554 500.230539c-30.589228-30.589228-71.412771-47.418989-114.965464-47.41899s-84.376235 16.829761-114.965464 47.41899L514.444864 619.858301c-30.589228 30.589228-47.418989 71.412771-47.418989 114.965464s16.829761 84.376235 47.418989 114.965463c30.589228 30.589228 71.412771 47.418989 114.965464 47.41899s84.376235-16.829761 114.965463-47.41899l119.627763-119.627762c30.589228-30.589228 47.418989-71.412771 47.418989-114.965464s-16.829761-84.376235-47.418989-114.965463z m-14.32804 215.716601L730.047751 835.461188c-55.379012 55.379012-146.00955 55.379012-201.388562 0-55.379012-55.379012-55.379012-146.00955 0-201.388562l119.627763-119.627762c55.379012-55.379012 146.00955-55.379012 201.388562 0 55.379012 55.492726 55.379012 146.123265 0 201.502276z" fill="#FFFFFF" /><path d="M849.675514 514.558579c-55.379012-55.379012-146.00955-55.379012-201.388562 0L528.772904 634.186341c-55.379012 55.379012-55.379012 146.00955 0 201.388562 55.379012 55.379012 146.00955 55.379012 201.388562 0l119.627762-119.627763c55.265297-55.379012 55.265297-146.00955-0.113714-201.388561z m-25.130928 176.257634l-59.813881 59.813881-151.126707-151.126707 59.813881-59.813881c20.127485-20.127485 46.964131-31.157801 75.620211-31.157801 28.65608 0 55.492726 11.030316 75.620211 31.157801 20.127485 20.127485 31.157801 46.964131 31.157801 75.620211-0.113715 28.542365-11.257746 55.379012-31.271516 75.506496z" fill="#3BE3C3" /><path d="M824.544586 539.689506c-20.127485-20.127485-46.964131-31.157801-75.620211-31.157801-28.65608 0-55.492726 11.030316-75.620211 31.157801l-59.813881 59.813881 151.126708 151.126707 59.813881-59.813881c20.127485-20.127485 31.157801-46.964131 31.157801-75.620211 0.113715-28.65608-11.030316-55.379012-31.044087-75.506496z" fill="#FFFFFF" /></svg>