<svg xmlns="http://www.w3.org/2000/svg" xmlns:xlink="http://www.w3.org/1999/xlink" version="1.1" width="50" height="50" x="0px" y="0px" viewBox="0 0 100 125" style="enable-background:new 0 0 100 100;" xml:space="preserve"><path d="M98.4,34.6c0-0.2-0.1-0.5-0.1-0.7c-0.1-0.6-0.3-1.1-0.6-1.6L81,8.1c-0.8-1.1-2-1.8-3.4-1.8H21.5c-1.4,0-2.6,0.7-3.4,1.8  L1.5,32.3c-0.2,0.2-0.3,0.5-0.4,0.8c-0.5,0.4-0.8,0.9-0.8,1.5c0,0.7,0.4,1.3,0.9,1.6c0.1,0.3,0.2,0.5,0.4,0.7l44.7,55.7  c0.6,0.8,1.5,1.3,2.4,1.4c0.1,0,0.2,0.1,0.3,0.1c0,0,0,0,0.1,0c0.1,0,0.3,0.1,0.4,0.1c0,0,0,0,0,0h0h0c0,0,0,0,0,0  c0.2,0,0.3,0,0.5-0.1c0,0,0,0,0.1,0c0.1,0,0.2-0.1,0.3-0.1c1-0.2,1.8-0.7,2.4-1.4L97.5,37c0.4-0.5,0.6-1,0.7-1.5  C98.3,35.2,98.4,34.9,98.4,34.6z M38.9,32.7l10.6-20.1l10.5,20.1H38.9z M60.8,36.6L49.6,83.9L38.2,36.6H60.8z M34.1,36.6L46,86  L6.5,36.6H34.1z M64.9,36.6h27.8L53.1,86L64.9,36.6z M77.8,10.4l15.3,22.3H64.5L52.8,10.3h24.8C77.7,10.3,77.8,10.3,77.8,10.4z   M21.4,10.4c0,0,0.1-0.1,0.1-0.1h24.8L34.5,32.7H6.1L21.4,10.4z"/></svg>