<svg xmlns="http://www.w3.org/2000/svg" xmlns:xlink="http://www.w3.org/1999/xlink" version="1.1" width="50" height="50" x="0px" y="0px" viewBox="0 0 100 125" enable-background="new 0 0 100 100" xml:space="preserve"><g><path d="M67.8,54.6C75.3,56,81,62.6,81,70.4c0,8.9-7.2,16.1-16.1,16.1c-5.2,0-9.9-2.5-12.8-6.4c-7.9,0.5-16.5-1-20.5-4.9   c-2.1-2.1-3.2-4.6-3.2-7.6c0-6.2,2.1-13.1,5.5-18.3c1.7-2.6,3.7-4.7,5.8-6.3c0.3-0.4,0.5-0.8,0.6-1.3c0.1-0.7-0.1-1.4-0.5-2.1   c-2.1-2.3-3.4-5.4-3.4-8.8c0-7.2,5.8-13.1,13-13.1c7.2,0,13,5.9,13,13.1c0,3.4-1.3,6.5-3.4,8.8c-0.4,0.7-0.6,1.4-0.5,2.1   c0.1,0.5,0.2,0.9,0.6,1.3c2.2,1.6,4.1,3.7,5.8,6.3C66,50.9,67,52.7,67.8,54.6z M76.9,70.4c0-5-3.1-9.3-7.5-11   c-1.2-0.5-2.5-0.8-3.9-0.8c-0.1,0-0.1,0-0.2,0c-0.1,0-0.2,0-0.3,0h0c-6.6,0-11.9,5.3-11.9,11.9c0,1.9,0.4,3.6,1.2,5.2   c0.7,1.5,1.8,2.8,3,3.9c2.1,1.8,4.8,2.8,7.7,2.8c0.1,0,0.1,0,0.2,0c0,0,0.1,0,0.1,0C71.7,82.2,76.9,76.9,76.9,70.4z M63.3,54.5   c-3.5-6.8-9.2-10.6-13.8-10.6c-7,0-16.9,9-16.9,23.8c0,1.9,0.6,3.4,1.9,4.6c2.6,2.5,9,3.7,15.3,3.7c-0.6-1.7-0.9-3.5-0.9-5.4   C48.9,62.1,55.2,55.3,63.3,54.5z M56.7,36c1.1-1.5,1.7-3.3,1.7-5.2c0-4.9-4-8.9-8.9-8.9s-8.9,4-8.9,8.9c0,1.9,0.6,3.7,1.7,5.2   c0.3,0.3,0.6,0.7,0.8,1c1.6,1.7,3.9,2.7,6.4,2.7s4.8-1,6.4-2.7C56.1,36.6,56.4,36.3,56.7,36z"/></g><g><path d="M64.8,76.8c-1.2-0.1-4.1-0.4-4.1-2.1c0-0.8,0.6-1.5,1.3-1.5c0.6,0,1.5,0.8,2.8,0.8v-2.8c-3-0.9-4-2-4-3.6   c0-2.4,1.8-3.9,4-4.1v-0.8c0-0.3,0.2-0.5,0.5-0.5c0.4,0,0.5,0.2,0.5,0.5v0.8c1.1,0,3.2,0.4,3.2,1.9c0,0.7-0.5,1.3-1.2,1.3   c-0.7,0-1.2-0.7-2-0.7v2.5c2,0.6,4.1,1.5,4.1,4c0,2.8-2.3,4.1-4.1,4.2v0.8c0,0.3-0.2,0.5-0.5,0.5c-0.4,0-0.5-0.2-0.5-0.5V76.8z    M64.8,66.1c-0.6,0.1-1,0.5-1,1.2c0,0.6,0.5,0.9,1,1V66.1z M65.9,74c0.6,0,1-0.6,1-1.2c0-0.8-0.4-1.1-1-1.3V74z"/></g></svg>