<svg xmlns="http://www.w3.org/2000/svg" xmlns:xlink="http://www.w3.org/1999/xlink" version="1.1" width="50" height="50" x="0px" y="0px" viewBox="0 0 69 86.25" style="enable-background:new 0 0 69 69;" xml:space="preserve"><g><path d="M37.20458,25.63867c-1.54785,0-2.76025,1.69238-2.76025,3.85254s1.2124,3.85156,2.76025,3.85156   s2.76025-1.69141,2.76025-3.85156C39.96484,27.36719,38.72655,25.63867,37.20458,25.63867z M37.20458,32.34277   c-0.9541,0-1.76025-1.30566-1.76025-2.85156s0.80615-2.85254,1.76025-2.85254s1.76025,1.30664,1.76025,2.85254   S38.15868,32.34277,37.20458,32.34277z"/><path d="M18.95214,23.92676l-1.63428-1.93945c-0.17871-0.21094-0.49365-0.23828-0.70459-0.06055   c-0.21094,0.17871-0.23779,0.49414-0.06006,0.70508l1.63428,1.93945c0.09912,0.11719,0.24023,0.17773,0.38281,0.17773   c0.11328,0,0.22803-0.03906,0.32178-0.11719C19.10302,24.45313,19.12987,24.1377,18.95214,23.92676z"/><path d="M56.79198,27.24219c0.02295,0,0.0459-0.00195,0.06934-0.00488c2.76416-0.38379,4.84863-2.7666,4.84863-5.54297   c0-0.67188-0.12256-1.4375-0.35449-2.21387c-0.07861-0.26465-0.3584-0.41211-0.62207-0.33594   c-0.26465,0.0791-0.41504,0.3584-0.33594,0.62305c0.20459,0.68457,0.3125,1.35059,0.3125,1.92676   c0,2.2793-1.71387,4.2373-3.98633,4.55273c-0.27344,0.03809-0.46436,0.29004-0.42627,0.56348   C56.33202,27.06152,56.54638,27.24219,56.79198,27.24219z"/><path d="M3.30858,57.23633l9.09521-7.1377c0.76274,0.87965,7.78204,7.3497,8.63428,8.1416l-8.46094,6.42969   c-0.21973,0.16699-0.26221,0.48145-0.09521,0.70117c0.09814,0.12891,0.24756,0.19727,0.39844,0.19727   c0.10547,0,0.21143-0.0332,0.30225-0.10156l8.93066-6.78711c0.1167-0.08887,0.18896-0.22559,0.19678-0.37207   s-0.0498-0.28906-0.15674-0.39063l-0.47455-0.44751l0.37738-0.23022c1.96143-1.19629,4.2124-1.8291,6.50977-1.8291   c4.13486-0.29398,8.86588,1.02179,14.35449-2.43164l10.87012-6.83984c0.48584-0.30469,0.79834-0.80762,0.85693-1.37793   c0.03809-0.36841-0.04352-0.7251-0.20947-1.04199h7.75732c0.15283,0,0.29736-0.07031,0.39209-0.18945l3.80469-4.81152   c0.11914-0.15039,0.1416-0.35547,0.05811-0.52832s-0.2583-0.28223-0.4502-0.28223h-9.4082v-7.94037   c4.34161-0.26074,7.79688-3.86511,7.79688-8.27155c0-1.56641-0.44287-3.33203-1.24707-4.9707   c-0.08398-0.1709-0.25781-0.2793-0.44873-0.2793h-3.99658v-2.63574c0-0.84082,0.68408-1.52539,1.52539-1.52539h5.32617   c0.27637,0,0.5-0.22363,0.5-0.5s-0.22363-0.5-0.5-0.5h-5.32617c-1.39258,0-2.52539,1.13281-2.52539,2.52539v2.63574h-8.20605   c-0.19092,0-0.36475,0.1084-0.44873,0.2793c-0.80127,1.63281-1.24219,3.39746-1.24219,4.9707   c0,4.40631,3.45331,8.01068,7.79248,8.27155v7.94037H43.03197c0.25513-0.37048,0.40601-0.81793,0.40601-1.30078   c0-5.3841,0-9.33923,0-14.69238c0-2.01743-1.51287-3.66651-3.45068-3.91797V3.93164c0-0.27637-0.22363-0.5-0.5-0.5h-4.56543   c-0.27637,0-0.5,0.22363-0.5,0.5v5.03229c0,0.00171-0.00098,0.00311-0.00098,0.00482s0.00098,0.00311,0.00098,0.00482v9.02155   c-1.94336,0.24707-3.45069,1.91016-3.45069,3.91895c0,5.59322,0,9.54386,0,14.69238c0,0.48285,0.15088,0.9303,0.40601,1.30078   H19.4829v-9.65515l9.87354-11.71692c0.12549-0.14844,0.15283-0.35645,0.07129-0.5332   c-0.08203-0.17578-0.25928-0.28906-0.45361-0.28906h-13.5835v-4.2207c0-1.11914-0.91064-2.03027-2.02979-2.03027H8.85692   c-0.27637,0-0.5,0.22363-0.5,0.5s0.22363,0.5,0.5,0.5h4.50391c0.56787,0,1.02979,0.46191,1.02979,1.03027v4.2207H8.98778   c-0.19434,0-0.37158,0.11328-0.45361,0.28906c-0.08203,0.17676-0.0542,0.38477,0.07129,0.5332l9.87744,11.70898v9.66309H8.40917   c-0.19189,0-0.3667,0.10938-0.4502,0.28223s-0.06104,0.37793,0.05811,0.52832l3.8042,4.81152   c0.09473,0.11914,0.23926,0.18945,0.39209,0.18945h14.51563l-12.70874,6.52899l-1.24341-1.17255   c-0.18115-0.16895-0.45801-0.18066-0.65186-0.0293L2.6914,56.44922c-0.21729,0.1709-0.25537,0.48535-0.08496,0.70215   C2.77636,57.36914,3.09179,57.40625,3.30858,57.23633z M48.79931,21.69531c0-1.33496,0.35596-2.83301,1.00684-4.25h8.37073   c0.00684,0.00031,0.01251,0.00391,0.01941,0.00391s0.01257-0.0036,0.01941-0.00391h4.16125   c0.65381,1.42188,1.01172,2.9209,1.01172,4.25c0,4.02344-3.27344,7.29688-7.29688,7.29688   C52.07079,28.99219,48.79931,25.71875,48.79931,21.69531z M27.89892,16.71289l-8.9126,10.57715l-8.92236-10.57715H27.89892z    M31.97118,24.75h10.4668v9.49219h-10.4668V24.75z M38.9873,4.43164v4.03711h-3.56543V4.43164H38.9873z M31.97118,21.91406   c0-1.62695,1.32373-2.9502,2.95069-2.9502c0.27637,0,0.5-0.22363,0.5-0.5V9.46875h3.56543v8.99512c0,0.27637,0.22363,0.5,0.5,0.5   c1.60756,0,2.95068,1.3105,2.95068,2.9502V23.75h-10.4668V21.91406z M31.97118,36.60645v-1.36426h10.4668v1.36426   c0,0.7168-0.5835,1.30078-1.30029,1.30078h-7.86621C32.55468,37.90723,31.97118,37.32324,31.97118,36.60645z M9.44188,38.90723   c10.66946,0,44.73509,0,55.52539,0l-3.01416,3.81152H12.45556L9.44188,38.90723z M49.95934,43.71875l-10.58289,4.26563   c-2.57959,1.04004-5.40332,1.3916-8.15772,1.01855l-1.5625-0.21191c-0.41455-0.05664-0.73633-0.3291-0.86035-0.72852   c-0.22304-0.72004,0.33642-1.36035,1.00146-1.36035h9.78467c1.05127,0,1.90674-0.85547,1.90674-1.90625   c0-0.39972-0.12488-0.77032-0.33618-1.07715H49.95934z M27.29247,44.55273c0.84473-0.43359,1.79395-0.66309,2.74463-0.66309   h9.54492c0.5,0,0.90674,0.40625,0.90674,0.90625s-0.40674,0.90625-0.90674,0.90625h-9.78467   c-1.34845,0-2.37544,1.30447-1.95654,2.65625c0.23828,0.76953,0.88281,1.31543,1.68115,1.42285l1.5625,0.21191   c2.92774,0.39746,5.92578,0.02344,8.66602-1.08105l12.73389-5.13281c0.31299-0.12695,0.66992-0.05566,0.91211,0.17773   c0.18994,0.18262,0.2832,0.43848,0.25635,0.70117c-0.02734,0.2627-0.1709,0.49414-0.39453,0.63477l-10.87012,6.83984   c-5.25571,3.30445-9.87906,2.00602-13.82227,2.27734c-2.48145,0-4.91211,0.68359-7.03027,1.97559L21.0205,56.7002   c-0.10079-0.09264-6.64685-6.10926-6.22894-5.72516L27.29247,44.55273z"/><path d="M13.47411,55.50684c0-1.23828-1.00293-2.24609-2.23584-2.24609c-1.23926,0-2.24707,1.00781-2.24707,2.24609   c0,1.23926,1.00781,2.24707,2.24707,2.24707C12.47118,57.75391,13.47411,56.74609,13.47411,55.50684z M11.23827,56.75391   c-0.6875,0-1.24707-0.55957-1.24707-1.24707s0.55957-1.24609,1.24707-1.24609c0.68164,0,1.23584,0.55859,1.23584,1.24609   S11.91991,56.75391,11.23827,56.75391z"/></g></svg>