<svg xmlns="http://www.w3.org/2000/svg" data-name="Layer 1" viewBox="0 0 128 160" width="50" height="50" x="0px" y="0px"><title>miscellaneous 438 final</title><path d="M96.65173,13H50.88867a2,2,0,0,0,0,4H96.65173a2,2,0,0,0,0-4Z"/><path d="M98.64142,23a1.995,1.995,0,0,0-1.98969-2H50.88867a2,2,0,0,0,0,4H96.65173A1.995,1.995,0,0,0,98.64142,23Z"/><path d="M37.00159,28.37891a3.34174,3.34174,0,0,1-1.44373-.73047,1.98069,1.98069,0,0,0-2.80188.25781,2.00592,2.00592,0,0,0,.25647,2.81641,7.30406,7.30406,0,0,0,3.03217,1.53015V34A1.98971,1.98971,0,1,0,40.024,34V32.23615a6.05623,6.05623,0,0,0,4.03577-9.10724c-1.33392-2.31152-3.73456-3.0293-5.66309-3.60547-2.08685-.623-3.036-1.00684-3.3576-2.05957a1.86112,1.86112,0,0,1,1.20569-2.10059,4.14212,4.14212,0,0,1,3.91626.4668,1.98165,1.98165,0,0,0,2.762-.53809,2.00542,2.00542,0,0,0-.53528-2.77637,8.46594,8.46594,0,0,0-1.69629-.88086V10A1.98974,1.98974,0,1,0,36.712,10v1.13507a7.416,7.416,0,0,0-2.08783.57489,5.78116,5.78116,0,0,0-3.39063,6.92285c.98511,3.21777,3.9007,4.08887,6.02936,4.72559,1.75067.52246,2.85046.90332,3.35565,1.7793a2.21642,2.21642,0,0,1,.04761,2.2168C39.99683,28.42773,38.34326,28.6416,37.00159,28.37891Z"/><path d="M47.7467,108.5127c.68707-11.93268-7.89929-21.99188-13.613-27.31036l3.59552-10.55389a1.99532,1.99532,0,0,0-2.87183-2.38379c-.04376.02344-4.29224,2.36426-6.36359.31152A1.98418,1.98418,0,0,0,27.0968,68h-.40808a1.98418,1.98418,0,0,0-1.397.57617c-2.0694,2.05176-6.32178-.28711-6.35773-.30859a1.98031,1.98031,0,0,0-2.25879.18848,2.00644,2.00644,0,0,0-.6189,2.19238l3.59552,10.55389c-5.71368,5.31848-14.3,15.37769-13.613,27.31036a20.88528,20.88528,0,0,0,19.09839,19.43945c.48285.03125.96863.04785,1.46021.04785h.5907c.49158,0,.97736-.0166,1.46118-.04883A20.88338,20.88338,0,0,0,47.7467,108.5127ZM26.89276,72.374a7.966,7.966,0,0,0,5.74469.873L30.336,80H23.44952l-2.30145-6.75293A7.966,7.966,0,0,0,26.89276,72.374ZM28.38409,123.96q-.59317.041-1.196.04h-.5907q-.60333,0-1.19495-.03906a16.837,16.837,0,0,1-15.39008-15.67871C9.39447,97.56152,18.12567,88.05859,22.50336,84h8.77881c4.37769,4.05859,13.10889,13.56152,12.491,24.28223A16.83505,16.83505,0,0,1,28.38409,123.96Z"/><path d="M27.29205,102.60254c-1.82745-.49316-2.71539-.80664-2.96313-1.53613-.2099-.627.63733-1.125.98022-1.26367a4.178,4.178,0,0,1,3.61121.38281,1.9845,1.9845,0,0,0,2.73486-.667,2.00677,2.00677,0,0,0-.66357-2.749,8.14116,8.14116,0,0,0-1.42035-.67737V95a1.98974,1.98974,0,1,0-3.97943,0v.62683a7.38321,7.38321,0,0,0-1.76819.465c-2.73486,1.10645-4.10858,3.73535-3.26337,6.25781.96185,2.83789,3.70056,3.57617,5.7,4.11621,1.31445.35352,2.55511.68848,3.00592,1.39355a1.23794,1.23794,0,0,1,.04956,1.34863c-.54993.7959-2.0791.99414-3.31006.77441a3.15674,3.15674,0,0,1-1.3067-.59277,1.98168,1.98168,0,0,0-2.7854.39746,2.00592,2.00592,0,0,0,.39545,2.7998,7.14462,7.14462,0,0,0,2.66687,1.25238V115a1.98971,1.98971,0,1,0,3.97937,0v-1.17847a5.928,5.928,0,0,0,3.63062-2.33521,5.21935,5.21935,0,0,0,.02722-5.79C31.33075,103.69141,29.09137,103.08789,27.29205,102.60254Z"/><path d="M119.56824,37.72266a15.42349,15.42349,0,0,1-.54016-1.71387,9.51532,9.51532,0,0,0-2.15582-4.45508,9.43146,9.43146,0,0,0-4.4292-2.165,15.06,15.06,0,0,1-1.707-.54395,13.98341,13.98341,0,0,1-1.50586-.7959,9.3731,9.3731,0,0,0-4.73914-1.64844,9.3733,9.3733,0,0,0-4.73914,1.64844,13.972,13.972,0,0,1-1.50586.7959,15.22717,15.22717,0,0,1-1.70508.543,9.42673,9.42673,0,0,0-4.43213,2.167A9.52052,9.52052,0,0,0,89.955,36.00684a15.2528,15.2528,0,0,1-.54114,1.71582,14.09936,14.09936,0,0,1-.79181,1.51367A9.48457,9.48457,0,0,0,86.98206,44a9.48457,9.48457,0,0,0,1.64,4.76367,14.09936,14.09936,0,0,1,.79181,1.51367,15.41066,15.41066,0,0,1,.54016,1.71387,9.5159,9.5159,0,0,0,2.15582,4.45508,9.41955,9.41955,0,0,0,4.42242,2.16315V77a2.00027,2.00027,0,0,0,1.059,1.76758,1.97816,1.97816,0,0,0,2.05-.11426l4.84985-3.31641,4.84991,3.31641a1.97984,1.97984,0,0,0,2.04993.11426A2.00015,2.00015,0,0,0,112.44983,77V58.60986a9.40981,9.40981,0,0,0,4.4234-2.16455,9.52052,9.52052,0,0,0,2.15387-4.45215,15.26534,15.26534,0,0,1,.54114-1.71582,14.09936,14.09936,0,0,1,.79181-1.51367A9.48457,9.48457,0,0,0,122,44a9.48457,9.48457,0,0,0-1.64-4.76367A14.09936,14.09936,0,0,1,119.56824,37.72266Zm-11.09778,35.498-2.86023-1.95605a1.97763,1.97763,0,0,0-2.2384,0l-2.86017,1.95605V60.381a7.10693,7.10693,0,0,0,7.9588,0Zm8.4397-26.45117a17.435,17.435,0,0,0-1.01819,1.97559,18.65945,18.65945,0,0,0-.70044,2.18164,6.50869,6.50869,0,0,1-1.13281,2.68945,6.44767,6.44767,0,0,1-2.67853,1.14063,18.20572,18.20572,0,0,0-2.16846.70313,17.29054,17.29054,0,0,0-1.96545,1.02344,6.31385,6.31385,0,0,1-2.75525,1.11621,6.31413,6.31413,0,0,1-2.75525-1.11621A17.28961,17.28961,0,0,0,99.77039,55.46,18.42819,18.42819,0,0,0,97.6,54.75586a6.4406,6.4406,0,0,1-2.6756-1.13867,6.51482,6.51482,0,0,1-1.13477-2.69238,18.4412,18.4412,0,0,0-.69952-2.17969A17.44474,17.44474,0,0,0,92.072,46.76953,6.38432,6.38432,0,0,1,90.96149,44,6.38432,6.38432,0,0,1,92.072,41.23047a17.44474,17.44474,0,0,0,1.01813-1.97559,18.66,18.66,0,0,0,.7005-2.18164,6.50788,6.50788,0,0,1,1.13281-2.68945,6.44773,6.44773,0,0,1,2.67847-1.14062A18.21017,18.21017,0,0,0,99.77039,32.54a17.28961,17.28961,0,0,0,1.96539-1.02344,6.31413,6.31413,0,0,1,2.75525-1.11621,6.31385,6.31385,0,0,1,2.75525,1.11621A17.29054,17.29054,0,0,0,109.21173,32.54a18.42086,18.42086,0,0,0,2.17041.7041,6.4406,6.4406,0,0,1,2.6756,1.13867,6.51483,6.51483,0,0,1,1.1347,2.69238,18.4525,18.4525,0,0,0,.69952,2.17969,17.435,17.435,0,0,0,1.01819,1.97559A6.38508,6.38508,0,0,1,118.02063,44,6.38508,6.38508,0,0,1,116.91016,46.76953Z"/><path d="M104.491,37a7.00009,7.00009,0,1,0,6.96393,7A6.99051,6.99051,0,0,0,104.491,37Zm0,10a3,3,0,1,1,2.98456-3A2.9956,2.9956,0,0,1,104.491,47Z"/><path d="M50.88867,29a2,2,0,0,0,0,4h35.998a10.59663,10.59663,0,0,1,1.96735-4Z"/><path d="M32.98138,42a1.995,1.995,0,0,0,1.98969,2H82.84332a9.00751,9.00751,0,0,1,1.052-4H34.97107A1.995,1.995,0,0,0,32.98138,42Z"/><path d="M32.98138,50a1.995,1.995,0,0,0,1.98969,2H85.97729c-.03113-.082-.0564-.17474-.08917-.25391a18.31175,18.31175,0,0,0-1.03564-1.97949c-.32074-.5603-.65381-1.14856-.9566-1.7666H34.97107A1.995,1.995,0,0,0,32.98138,50Z"/><path d="M87.20673,56H34.97107a2,2,0,0,0,0,4H89.90613a6.86906,6.86906,0,0,1-.71576-.62012A8.7969,8.7969,0,0,1,87.20673,56Z"/><path d="M102.62085,81.45392V86H43.82928c.944,1.255,1.85986,2.58862,2.71539,4h56.07617v8H84.41333a5.79223,5.79223,0,0,0-5.66888,5.89551V124H45.13763a25.337,25.337,0,0,1-4.70929,4H79.81409a1.98466,1.98466,0,0,0,1.4165-.59473l24.79645-25.252a2.00737,2.00737,0,0,0,.57318-1.40527V81.61737L104.491,80.1748Zm-19.897,38.736V103.89551A1.80358,1.80358,0,0,1,84.41333,102h16.17255Z"/><path d="M104.491,22.24023a7.54084,7.54084,0,0,1,2.10919.31757V5.94238A5.96239,5.96239,0,0,0,100.63208,0H29.001A5.96234,5.96234,0,0,0,23.0329,5.94238v59.335A5.90142,5.90142,0,0,1,26.68872,64h.32355V5.94238A1.96783,1.96783,0,0,1,29.001,4h71.6311a1.96789,1.96789,0,0,1,1.98877,1.94238V22.49268A7.42834,7.42834,0,0,1,104.491,22.24023Z"/><path d="M41.474,72l-1.36243,4H67.80109a2,2,0,0,0,0-4Z"/><path d="M92.55286,64H34.97107a1.969,1.969,0,0,0-1.14178.366A5.91,5.91,0,0,1,41.43964,68H92.55286Z"/></svg>