<svg xmlns="http://www.w3.org/2000/svg" xmlns:xlink="http://www.w3.org/1999/xlink" width="50" height="50" version="1.1" x="0px" y="0px" viewBox="0 0 100 125" style="enable-background:new 0 0 100 100;" xml:space="preserve"><path d="M82.5576172,41.3027344C86.4462891,38.5893555,89,34.090332,89,29c0-8.2709961-6.7285156-15-15-15s-15,6.7290039-15,15  c0,5.0864258,2.5507813,9.5820313,6.4335938,12.2958984c-1.5556641,0.2680664-3.0527344,0.78125-4.4501953,1.5224609  C58.2421875,39.8632813,54.3398438,38,50,38c-4.3388672,0-8.2421875,1.862793-10.9833984,4.8178711  c-1.3964844-0.7412109-2.8955078-1.253418-4.4501953-1.5219727C38.4492188,38.5820313,41,34.0864258,41,29  c0-8.2709961-6.7285156-15-15-15s-15,6.7290039-15,15c0,5.090332,2.5537109,9.5893555,6.4423828,12.3027344  C10.3876953,42.5219727,5,48.6704102,5,56.0683594V62h6v-5.9316406c0-4.9628906,4.0371094-9.0004883,9-9.0004883h12  c1.3603516,0,2.6845703,0.3066406,3.8916016,0.8867188C35.3251953,49.5341797,35,51.2275391,35,53  c0,5.0898438,2.5537109,9.5898438,6.4423828,12.3027344C34.3876953,66.5214844,29,72.6699219,29,80.0683594V86h6v-5.9316406  c0-4.9628906,4.0371094-9,9-9h12c4.9628906,0,9,4.0371094,9,9V86h6v-5.9316406  c0-7.3984375-5.3876953-13.546875-12.4423828-14.765625C62.4462891,62.5898438,65,58.0898438,65,53  c0-1.7734375-0.3251953-3.4677734-0.8925781-5.0478516C65.3134766,47.3720703,66.6376953,47.0678711,68,47.0678711h12  c4.9628906,0,9,4.0375977,9,9.0004883V62h6v-5.9316406C95,48.6704102,89.6123047,42.5219727,82.5576172,41.3027344z M26,38  c-4.9628906,0-9-4.0371094-9-9s4.0371094-9,9-9s9,4.0371094,9,9S30.9628906,38,26,38z M50,62c-4.9628906,0-9-4.0371094-9-9  s4.0371094-9,9-9s9,4.0371094,9,9S54.9628906,62,50,62z M74,38c-4.9628906,0-9-4.0371094-9-9s4.0371094-9,9-9s9,4.0371094,9,9  S78.9628906,38,74,38z"/></svg>